<svg version="1.1" id="Layer_1" xmlns="http://www.w3.org/2000/svg" x="0" y="0" viewBox="0 0 64 47" xml:space="preserve"><path d="M51.8 15h-4L49 1V.9c0-.4-.2-.7-.6-.9h-.1H28.9c-.5 0-.9.4-.9.9s.4.9.9.9H47l-1.9 21.5-.5 5.4H12.1l.5-5.7h6.2c.5 0 .9-.4.9-.9s-.4-.9-.9-.9h-6L14 9.4h9.9c.5 0 .9-.4.9-.9s-.4-.9-.9-.9h-9.7l.5-5.6h10.4c.5 0 .9-.4.9-.9s-.4-.9-.9-.9H13.9c-.4 0-.8.3-.9.7V1l-.6 6.6H.9c-.5-.1-.9.3-.9.8 0 .6.4 1 .9 1h11.2L11 21.3H7.6c-.5 0-.9.4-.9.9s.4.9.9.9h3.2l-.6 6.5-1 10v.4c0 .1.1.3.2.4.1.1.1.1.2.1H14.2c.5 3.5 3.5 6.2 7.1 6.2 3.6 0 6.6-2.7 7.1-6.2h15c.5 3.5 3.5 6.2 7.1 6.2 3.6 0 6.6-2.7 7.1-6.2H62.1v-.1-.1-.1-.1c0-.3.8-6.2 1.1-10.1.1-1.1.2-2 .2-2.6C64 20.5 58.5 15 51.8 15zm-4.2 1.9h3.8l-.4 5.7h-3.8l.4-5.7zM21.4 45.1c-2.9 0-5.3-2.4-5.3-5.3s2.4-5.3 5.3-5.3 5.3 2.4 5.3 5.3c-.1 2.9-2.4 5.3-5.3 5.3zm29.2 0c-2.9 0-5.3-2.4-5.3-5.3s2.4-5.3 5.3-5.3 5.3 2.4 5.3 5.3c-.1 2.9-2.4 5.3-5.3 5.3zM61 38.9h-3.3c-.5-3.5-3.5-6.2-7.1-6.2-3.6 0-6.6 2.7-7.1 6.2h-15c-.5-3.5-3.5-6.2-7.1-6.2-3.6 0-6.6 2.7-7.1 6.2h-3.1l.8-8.2H45.9l.5-5.4h4.8c2.9 0 4.2 1.5 5.5 3.1 1.1 1.3 2.4 2.8 4.5 3.1.4 2 0 5.8-.2 7.4zm1.1-10.1c-1.4-.3-2.3-1.3-3.3-2.5-1.3-1.5-2.9-3.3-5.9-3.7l.5-5.6c5 .7 8.8 5.1 8.8 10.2-.1.4-.1.9-.1 1.6zm-40.7 7.6c-1.9 0-3.4 1.5-3.4 3.5 0 1.9 1.5 3.5 3.4 3.5s3.4-1.5 3.4-3.5-1.5-3.5-3.4-3.5zm0 5c-.9 0-1.6-.7-1.6-1.6 0-.9.7-1.6 1.6-1.6.9 0 1.6.7 1.6 1.6-.1.9-.8 1.6-1.6 1.6zm29.2-5c-1.9 0-3.4 1.5-3.4 3.5 0 1.9 1.5 3.5 3.4 3.5s3.4-1.5 3.4-3.5-1.5-3.5-3.4-3.5zm0 5c-.9 0-1.6-.7-1.6-1.6 0-.9.7-1.6 1.6-1.6.9 0 1.6.7 1.6 1.6-.1.9-.8 1.6-1.6 1.6zM9.8 16c0-.5-.4-.9-.9-.9H4.3c-.5 0-.9.4-.9.9s.4.9.9.9h4.6c.5 0 .9-.4.9-.9z"/></svg>