<svg version="1.1" id="Layer_1" xmlns="http://www.w3.org/2000/svg" x="0" y="0" viewBox="456 256 48 48" xml:space="preserve"><path d="M495.2 273.7h-3l.9-10.6v-.1c0-.3-.2-.5-.5-.7h-.1-14.7c-.4 0-.7.3-.7.7 0 .4.3.7.7.7h13.7l-1.4 16.3-.4 4.1h-24.6l.4-4.3h4.7c.4 0 .7-.3.7-.7 0-.4-.3-.7-.7-.7h-4.5l.9-8.9h7.5c.4 0 .7-.3.7-.7 0-.4-.3-.7-.7-.7h-7.3l.4-4.2h7.9c.4 0 .7-.3.7-.7 0-.4-.3-.7-.7-.7h-8.5c-.3 0-.6.2-.7.5v.1l-.5 5h-8.7c-.4-.1-.7.2-.7.6 0 .5.3.8.7.8h8.5l-.8 9h-2.6c-.4 0-.7.3-.7.7 0 .4.3.7.7.7h2.4l-.5 4.9-.8 7.6v.4c0 .1.1.2.2.3.1.1.1.1.2.1h3.6c.4 2.6 2.6 4.7 5.4 4.7s5-2 5.4-4.7H489c.4 2.6 2.6 4.7 5.4 4.7 2.7 0 5-2 5.4-4.7H503.3v-.1-.2-.1c0-.2.6-4.7.8-7.6.1-.8.2-1.5.2-2 .1-5.4-4-9.5-9.1-9.5zm-3.2 1.4h2.9l-.3 4.3h-2.9l.3-4.3zm-19.8 21.4c-2.2 0-4-1.8-4-4s1.8-4 4-4 4 1.8 4 4c-.1 2.1-1.8 4-4 4zm22.1 0c-2.2 0-4-1.8-4-4s1.8-4 4-4 4 1.8 4 4c-.1 2.1-1.8 4-4 4zm7.9-4.7h-2.5c-.4-2.6-2.6-4.7-5.4-4.7-2.7 0-5 2-5.4 4.7h-11.3c-.4-2.6-2.6-4.7-5.4-4.7-2.7 0-5 2-5.4 4.7h-2.3l.6-6.2H490.8l.4-4.1h3.6c2.2 0 3.2 1.1 4.2 2.3.8 1 1.8 2.1 3.4 2.3.2 1.6-.1 4.5-.2 5.7zm.8-7.7c-1.1-.2-1.7-1-2.5-1.9-1-1.1-2.2-2.5-4.5-2.8l.4-4.2c3.8.5 6.7 3.9 6.7 7.7-.1.3-.1.7-.1 1.2zm-30.8 5.8c-1.4 0-2.6 1.1-2.6 2.6 0 1.4 1.1 2.6 2.6 2.6s2.6-1.1 2.6-2.6-1.2-2.6-2.6-2.6zm0 3.8c-.7 0-1.2-.5-1.2-1.2s.5-1.2 1.2-1.2 1.2.5 1.2 1.2c-.1.6-.6 1.2-1.2 1.2zm22.1-3.8c-1.4 0-2.6 1.1-2.6 2.6 0 1.4 1.1 2.6 2.6 2.6s2.6-1.1 2.6-2.6-1.2-2.6-2.6-2.6zm0 3.8c-.7 0-1.2-.5-1.2-1.2s.5-1.2 1.2-1.2 1.2.5 1.2 1.2c-.1.6-.6 1.2-1.2 1.2zm-30.9-19.3c0-.4-.3-.7-.7-.7h-3.5c-.4 0-.7.3-.7.7 0 .4.3.7.7.7h3.5c.4 0 .7-.3.7-.7z"/></svg>