<svg version="1.1" id="Layer_1" xmlns="http://www.w3.org/2000/svg" x="0" y="0" viewBox="456 256 48 48" xml:space="preserve"><path d="M496.7 294.4c-.2 0-.5.1-.6.2-.2.2-.2.4-.2.6 0 .2.1.5.2.6s.4.2.6.2c.2 0 .5-.1.6-.2.2-.2.2-.4.2-.6 0-.2-.1-.5-.2-.6-.1-.1-.4-.2-.6-.2zm-22.8 3c-2 0-3.6 1.6-3.6 3.6s1.6 3.6 3.6 3.6 3.6-1.6 3.6-3.6c-.1-2-1.7-3.6-3.6-3.6zm0 5.3c-1 0-1.7-.7-1.7-1.7s.7-1.7 1.7-1.7 1.7.7 1.7 1.7c0 .9-.8 1.7-1.7 1.7zm17.2-5.3c-2 0-3.6 1.6-3.6 3.6s1.6 3.6 3.6 3.6 3.6-1.6 3.6-3.6c-.1-2-1.7-3.6-3.6-3.6zm0 5.3c-1 0-1.7-.7-1.7-1.7s.7-1.7 1.7-1.7 1.7.7 1.7 1.7c0 .9-.8 1.7-1.7 1.7zm8.5-21.4c-.5-.1-1 .2-1.1.7l-1.4 7c-.1.5-.5.8-1 .8h-27l-3.7-16h9.6c.5 0 1-.4 1-1s-.4-1-1-1h-10l-1-4.2c-.3-1.3-1.4-2.2-2.7-2.2h-4.6c-.5 0-1 .4-1 1 0 .5.4 1 1 1h4.6c.4 0 .8.3.9.7l6.3 27.3c.1.4.5.7.9.7h23.9c.5 0 1-.4 1-1s-.4-1-1-1h-23.2l-.6-2.6h26.6c1.4 0 2.5-1 2.8-2.3l1.4-7c.1-.3-.2-.8-.7-.9zm3.7-12.1c.6-1 .5-2.2-.4-3l-1-1c-.1-.1-.2-.2-.2-.4l.1-1.3c.1-1.1-.6-2.2-1.7-2.5l-1.2-.4c-.2-.1-.3-.2-.3-.3l-.5-1.2c-.5-1-1.6-1.6-2.7-1.4l-1.3.2c-.2 0-.3 0-.5-.1l-1-.8c-.9-.7-2.2-.7-3 0l-1 .8c-.2.1-.3.2-.5.1l-1.3-.2c-1.1-.2-2.2.4-2.7 1.4l-.5 1.2c.1.2 0 .2-.2.3l-1.2.4c-1.1.2-1.8 1.3-1.8 2.4l.1 1.3c0 .2-.1.3-.2.4l-1 1c-.8.8-1 2-.4 3l.7 1.1c.1.2.1.3.1.5l-.4 1.3c-.3 1.1.1 2.2 1 2.8l1.1.6c.2.1.2.2.2.4l.2 1.3c.2 1.1 1.1 1.9 2.2 2l1.3.1c.2 0 .3.1.4.2l.8 1c.5.6 1.2 1 1.9 1 .3 0 .7-.1 1-.2l1.2-.6c.2-.1.3-.1.5 0l1.2.6c1 .5 2.2.2 3-.7l.8-1c.1-.2.2-.2.4-.2l1.3-.1c1.1-.1 2.1-.9 2.2-2l.2-1.3c0-.2.2-.3.2-.4l1.1-.6c1-.6 1.4-1.8 1-2.8l-.4-1.3c-.1-.2 0-.3.1-.5l1.1-1.1zm-1.5-1l-.7 1.1c-.4.6-.5 1.4-.2 2l.4 1.3c.1.2 0 .5-.2.6l-1.1.6c-.6.4-1 1-1.1 1.7l-.2 1.3c-.1.2-.2.5-.5.5l-1.3.1c-.7 0-1.4.4-1.8 1l-.8 1c-.2.2-.4.2-.6.2l-1.2-.6c-.6-.3-1.4-.3-2.1 0l-1.2.6c-.2.1-.5 0-.6-.2l-.8-1c-.4-.6-1.1-.9-1.8-1l-1.2-.1c-.2 0-.5-.2-.5-.5l-.2-1.3c-.1-.7-.6-1.3-1.1-1.7l-1.1-.6c-.2-.2-.3-.4-.2-.6l.4-1.3c.2-.6.2-1.4-.2-2l-.7-1.1c-.2-.2-.1-.5.1-.6l1-1c.5-.5.8-1.2.7-1.9l-.1-1.3c0-.2.2-.5.4-.6l1.2-.4c.7-.2 1.2-.7 1.5-1.4l.5-1.2c.1-.2.3-.3.5-.3h.1l1.3.2c.7.2 1.4-.1 2-.5l1-.8c.2-.2.5-.2.7 0l1 .8c.6.5 1.3.6 2 .5l1.3-.2c.2-.1.5.1.6.3l.5 1.2c.3.6.8 1.1 1.5 1.4l1.1.4c.2.1.4.3.4.6l-.1 1.3c-.1.7.2 1.4.7 1.9l1 1c-.2.1-.2.4-.3.6zm-8.4-3.4c-.5-.2-1-.1-1.3.3l-4.3 7.7c-.2.5-.1 1 .3 1.3.2.1.3.2.5.2.3 0 .6-.2.8-.5l4.3-7.7c.4-.5.2-1.1-.3-1.3zm.7 4.9c-1.4 0-2.4 1.1-2.4 2.4 0 1.4 1.1 2.4 2.4 2.4 1.3 0 2.4-1.1 2.4-2.4 0-1.3-1.1-2.4-2.4-2.4zm0 3c-.3 0-.6-.2-.6-.6 0-.3.2-.6.6-.6s.6.2.6.6c-.1.4-.3.6-.6.6zm-3.2-6.8c0-1.4-1.1-2.4-2.4-2.4-1.4 0-2.4 1.1-2.4 2.4 0 1.4 1.1 2.4 2.4 2.4 1.3 0 2.4-1 2.4-2.4zm-3 0c0-.3.2-.6.6-.6s.6.2.6.6c0 .3-.2.6-.6.6s-.6-.3-.6-.6z"/></svg>