<svg version="1.1" id="Layer_1" xmlns="http://www.w3.org/2000/svg" x="0" y="0" viewBox="456 256 48 48" xml:space="preserve"><path d="M478 279.8c2.2 0 4-1.8 4-4v-2.9c0-2.2-1.8-4-4-4s-4 1.8-4 4v2.9c.1 2.2 1.9 4 4 4zm0-1.5c-1.4 0-2.5-1.1-2.6-2.3.7.6 1.6 1 2.6 1s1.9-.4 2.6-1c-.1 1.3-1.2 2.3-2.6 2.3zm0-7.9c1.4 0 2.6 1.1 2.6 2.6 0 1.4-1.1 2.6-2.6 2.6s-2.6-1.1-2.6-2.6c.1-1.5 1.2-2.6 2.6-2.6zm0 4.2c.4 0 .7-.3.7-.7V272c0-.4-.3-.7-.7-.7-.4 0-.7.3-.7.7v1.9c.1.4.4.7.7.7zm12.7 1.4c3.5 0 6.3-2.9 6.3-6.3v-2.9c0-3.5-2.9-6.4-6.3-6.4-3.5 0-6.3 2.9-6.3 6.4v2.9c-.1 3.5 2.8 6.3 6.3 6.3zm0-14.1c2.7 0 5 2.3 5 5s-2.2 5-5 5c-2.7 0-5-2.3-5-5 .1-2.8 2.3-5 5-5zm0 11.3c1.9 0 3.5-.8 4.7-2.1-.6 2-2.5 3.5-4.7 3.5s-4.1-1.5-4.7-3.5c1.1 1.2 2.8 2.1 4.7 2.1zm0-3.8c.4 0 .7-.3.7-.7V265c0-.4-.3-.7-.7-.7-.4 0-.7.3-.7.7v3.8c0 .3.3.6.7.6zm12.9 15c-1-1.7-3.1-2.3-4.8-1.3-.3.2-4.2 2.1-7.4 3.5-.4.2-.5.6-.4.9.1.4.6.5.9.4 3.4-1.4 7.4-3.5 7.5-3.5h.1c1-.6 2.3-.2 2.9.8.7 1.2-.4 2.5-.9 3-3.5 2.8-13.1 10-16.4 10-3.6 0-13.7-2.2-16.2-2.7V284c4.9-.8 7.5.1 12.9 2.1 1.7.6 3.5 1.2 5.8 2 .4.2 1.3.7.9 1.9-.2.8-.9 1.4-2 1.2-1.4-.2-9.5-1.4-9.9-1.4-.4-.1-.8.2-.8.6-.1.4.2.8.6.8.1 0 8.5 1.1 9.8 1.4.2.1.5.1.6.1 1.5 0 2.6-1.1 2.9-2.3.4-1.3 0-2.9-1.7-3.6-2.3-.8-4.1-1.4-5.8-2-5.4-1.9-8.3-2.9-13.4-2.2v-.6c0-.4-.3-.7-.7-.7H466v-.7c0-.4-.3-.7-.7-.7h-8.7c-.4 0-.7.3-.7.7v15.5c0 .4.3.7.7.7s.7-.3.7-.7v-14.9h7.3v16.9h-1.4v-.7c0-.4-.3-.7-.7-.7-.4 0-.7.3-.7.7v.7h-5.3c-.4 0-.7.3-.7.7 0 .5.3.8.7.8h8.7c.4 0 .7-.3.7-.7v-.8h2.1c.4 0 .7-.3.7-.7v-.5c2.9.6 12.5 2.6 16.2 2.6 2 0 5.3-1.7 10.4-5.3 3.7-2.6 6.9-5.1 6.9-5.2 0 0 .1 0 .1-.1 1.7-1.4 2.1-3.1 1.3-4.5zM467.5 296v.7H466v-14h1.4V296z"/></svg>