<svg version="1.1" id="Layer_1" xmlns="http://www.w3.org/2000/svg" x="0" y="0" viewBox="456 256 48 48" xml:space="preserve"><path d="M487.6 289.7h-27.3c-.5 0-.9-.4-.9-.9v-25.6c-.1-.5.3-.9.9-.9h39.3c.5 0 .9.4.9.9v11.1c0 .5.4.8.8.8.5 0 .8-.3.8-.8v-11.1c0-1.4-1.1-2.5-2.5-2.5h-39.2c-1.4 0-2.5 1.1-2.5 2.5v25.6c0 1.4 1.1 2.5 2.5 2.5h27.4c.5 0 .8-.3.8-.8-.2-.4-.5-.8-1-.8zm-14.5-16.2v-5.1c0-.9-.7-1.7-1.7-1.7h-6.8c-.9 0-1.7.7-1.7 1.7v5.1c0 .9.7 1.7 1.7 1.7h6.8c1-.1 1.7-.9 1.7-1.7zm-6.8.1h-1.8s-.1 0-.1-.1v-5.1s0-.1.1-.1h1.8v5.3zm1.7 0v-1.8h.9c.5 0 .8-.3.8-.8s-.4-.8-.8-.8h-.9v-1.8h3.5s.1 0 .1.1v5.1s0 .1-.1.1H468zm21.8-7c-.8-.5-1.7-.8-2.5-.8-2.5 0-4.6 2.1-4.6 4.6s2.1 4.6 4.6 4.6c1 0 1.8-.3 2.5-.8.8.5 1.7.8 2.5.8 2.5 0 4.6-2.1 4.6-4.6s-2.1-4.6-4.6-4.6c-.9 0-1.8.4-2.5.8zm-1.2 6.6c-.4.2-.9.3-1.4.3-1.7 0-3-1.4-3-3 0-1.7 1.4-3 3-3 .5 0 1 .1 1.4.3-.6.8-.9 1.7-.9 2.7 0 1 .3 1.9.9 2.7zm6.8-2.7c0 1.7-1.4 3-3 3-.5 0-1-.1-1.4-.3.6-.8.9-1.7.9-2.7 0-.5-.4-.8-.8-.8-.5 0-.8.3-.8.8 0 .6-.2 1.2-.5 1.7-.3-.5-.5-1-.5-1.7 0-1.7 1.4-3 3-3 1.7-.1 3.1 1.3 3.1 3zm-31.7 9c-.5 0-.8.3-.8.8s.4.8.8.8h6.8c.5 0 .8-.3.8-.8s-.4-.8-.8-.8h-6.8zm24.8 5.1h-24.8c-.5 0-.8.3-.8.8s.4.8.8.8h24.8c.5 0 .8-.3.8-.8s-.4-.8-.8-.8zm-14.6-5.1c-.5 0-.8.3-.8.8s.4.8.8.8h6.8c.5 0 .8-.3.8-.8s-.4-.8-.8-.8h-6.8zm15.5 0h-5.1c-.5 0-.8.3-.8.8s.4.8.8.8h5.1c.5 0 .8-.3.8-.8s-.4-.8-.8-.8zm14.5 6.1V282c0-3.3-2.6-5.9-5.9-5.9-3.3 0-5.9 2.6-5.9 5.9v3.6c-1 .3-1.7 1.3-1.7 2.4v7.6c0 1.4 1.1 2.5 2.5 2.5h10.3c1.4 0 2.5-1.1 2.5-2.5V288c-.2-1.2-.9-2-1.8-2.4zm-10.3-3.6c0-2.4 1.9-4.3 4.3-4.3s4.3 1.9 4.3 4.3v3.5h-8.6V282zm10.4 13.7c0 .5-.4.9-.9.9h-10.3c-.5 0-.9-.4-.9-.9V288c0-.5.4-.9.9-.9h10.3c.5 0 .9.4.9.9v7.7zm-6.1-6.8c-1.1 0-2.1 1-2.1 2.1 0 .9.6 1.6 1.3 1.9v1c0 .5.4.8.8.8.5 0 .8-.3.8-.8v-1c.8-.3 1.3-1.1 1.3-1.9 0-1.2-1-2.1-2.1-2.1zm0 2.6c-.2 0-.5-.2-.5-.5 0-.2.2-.5.5-.5s.5.2.5.5c0 .2-.3.5-.5.5z"/></svg>